<svg xmlns="http://www.w3.org/2000/svg" viewBox="130 0 170 155" fill="none">
  <defs>
    <clipPath id="l1c">
      <path d="M160 140 C160 140, 145 90, 155 50 C158 40, 165 35, 170 40 C180 50, 185 80, 185 100 C185 115, 178 130, 165 140Z"/>
    </clipPath>
    <clipPath id="l2c">
      <path d="M175 135 C175 135, 185 75, 210 40 C215 33, 222 32, 225 38 C232 52, 228 90, 220 115 C215 128, 200 138, 185 140Z"/>
    </clipPath>
    <clipPath id="l3c">
      <path d="M195 140 C195 140, 225 80, 260 55 C267 50, 273 52, 274 58 C278 75, 265 110, 248 130 C238 140, 218 145, 205 142Z"/>
    </clipPath>
  </defs>

  <!-- Leaf 1 - Dark Green -->
  <path d="M160 140 C160 140, 145 90, 155 50 C158 40, 165 35, 170 40 C180 50, 185 80, 185 100 C185 115, 178 130, 165 140Z" fill="#1a5c2a"/>
  <g clip-path="url(#l1c)" stroke="#fff" stroke-width="0.6" opacity="0.3">
    <line x1="158" y1="135" x2="160" y2="55"/><line x1="162" y1="138" x2="163" y2="58"/>
    <line x1="166" y1="139" x2="166" y2="50"/><line x1="170" y1="140" x2="169" y2="48"/>
    <line x1="174" y1="138" x2="173" y2="52"/><line x1="178" y1="135" x2="177" y2="60"/>
  </g>

  <!-- Leaf 2 - Bright Green -->
  <path d="M175 135 C175 135, 185 75, 210 40 C215 33, 222 32, 225 38 C232 52, 228 90, 220 115 C215 128, 200 138, 185 140Z" fill="#5cb839"/>
  <g clip-path="url(#l2c)" stroke="#fff" stroke-width="0.6" opacity="0.3">
    <line x1="187" y1="137" x2="199" y2="42"/><line x1="195" y1="139" x2="207" y2="39"/>
    <line x1="203" y1="138" x2="215" y2="43"/><line x1="211" y1="134" x2="222" y2="55"/>
  </g>
  <!-- Grass blades -->
  <g stroke="#5cb839" stroke-width="1.5" fill="none" stroke-linecap="round">
    <path d="M198 42 C196 28, 192 18, 190 8"/><path d="M203 38 C202 25, 200 15, 197 4"/>
    <path d="M208 36 C208 22, 208 12, 206 2"/><path d="M213 37 C214 23, 216 13, 216 3"/>
    <path d="M218 40 C220 27, 224 17, 226 7"/><path d="M222 45 C225 32, 230 22, 234 14"/>
  </g>
  <g stroke="#3a9926" stroke-width="1.2" fill="none" stroke-linecap="round">
    <path d="M200 40 C198 30, 195 20, 194 10"/><path d="M210 36 C211 24, 213 14, 212 4"/>
    <path d="M220 42 C223 30, 228 20, 232 12"/>
  </g>

  <!-- Leaf 3 - Brown -->
  <path d="M195 140 C195 140, 225 80, 260 55 C267 50, 273 52, 274 58 C278 75, 265 110, 248 130 C238 140, 218 145, 205 142Z" fill="#8B6914"/>
  <g clip-path="url(#l3c)" stroke="#fff" stroke-width="0.6" opacity="0.25">
    <line x1="209" y1="141" x2="239" y2="58"/><line x1="217" y1="142" x2="248" y2="57"/>
    <line x1="225" y1="141" x2="257" y2="60"/><line x1="233" y1="139" x2="263" y2="67"/>
    <line x1="241" y1="135" x2="268" y2="78"/>
  </g>
  <path d="M205 141 C220 115, 245 85, 267 58" stroke="#6d5210" stroke-width="1.2" fill="none" opacity="0.5"/>
</svg>